<svg xmlns="http://www.w3.org/2000/svg" viewBox="0 0 58.339 25.014" overflow="visible"><path d="M 6.359 20.109 C 2.29 20.109 0 18.474 0 15.886 C 0 12.997 2.587 11.39 8.38 10.926 C 9.996 10.79 11.747 10.708 13.256 10.654 C 12.906 9.155 11.747 8.556 8.891 8.556 C 6.601 8.556 3.637 9.237 1.428 10.191 L 0.97 10.191 L 0.97 6.294 C 3.368 5.341 6.601 4.632 9.673 4.632 C 15.466 4.632 18.349 6.512 18.349 11.172 L 18.349 19.619 L 13.499 19.619 L 13.499 17.738 L 13.202 17.738 C 11.99 18.992 9.43 20.109 6.359 20.109 Z M 5.119 15.395 C 5.119 16.131 5.901 16.458 7.679 16.458 C 10.427 16.458 13.283 15.64 13.364 13.651 C 12.098 13.706 10.4 13.815 8.945 13.924 C 6.035 14.223 5.119 14.578 5.119 15.395 Z M 21.963 19.619 L 21.963 0 L 27.082 0 L 27.082 19.619 Z M 30.909 19.619 L 30.909 0 L 36.028 0 L 36.028 19.619 Z M 43.546 25.014 L 43.546 24.578 L 46.537 18.665 L 45.109 18.665 L 38.212 5.559 L 38.212 5.123 L 43.735 5.123 L 48.073 14.632 L 49.043 14.632 L 53.273 5.123 L 58.339 5.123 L 58.339 5.559 L 48.585 25.014 Z" fill="currentColor"></path></svg>
